<svg width="69" height="187" viewBox="0 0 69 187" fill="none" xmlns="http://www.w3.org/2000/svg">
<g id="Brahma_Madhya_Gaudiya_Tilaka 1">
<g id="Layer_x0020_1">
<path id="path72" fill-rule="evenodd" clip-rule="evenodd" d="M34.5013 185.369C33.6187 185.369 32.0621 182.916 30.2167 180.127C23.7015 170.27 13.2386 149.721 12.9658 143.149C12.5004 131.576 20.2513 125.742 29.5908 121.51C24.1348 120.244 20.8611 118.513 16.3197 115.307C2.96833 105.85 3.19299 89.3248 3.20904 72.7672L3.22508 2.81796C3.22508 2.14476 3.86698 1.64787 4.9582 1.64787L11.2167 1.63184C12.693 1.61581 13.2707 1.96844 13.2707 2.83399L13.1905 71.5009C13.1744 88.2188 13.9287 111.108 34.5013 111.108C55.074 111.108 55.8122 88.2188 55.7961 71.5009L55.7159 2.83399C55.7159 1.96844 56.2936 1.61581 57.7699 1.63184L64.0284 1.64787C65.1357 1.64787 65.7615 2.14476 65.7615 2.81796L65.7936 72.7672C65.7936 89.3248 66.0183 105.85 52.6669 115.307C48.1415 118.513 44.8518 120.244 39.3958 121.51C48.7513 125.742 56.4862 131.576 56.0208 143.149C55.748 149.705 45.3012 170.238 38.786 180.111C36.9245 182.916 35.3679 185.369 34.5013 185.369Z" fill="#FCFCFC" fill-opacity="0.63" stroke="white" stroke-width="0.288003"/>
</g>
</g>
</svg>
